<svg viewBox="0 0 400 300" xmlns="http://www.w3.org/2000/svg">
  <defs>
    <linearGradient id="grad-res" x1="0%" y1="0%" x2="100%" y2="100%">
      <stop offset="0%" style="stop-color:#60a5fa;stop-opacity:1" />
      <stop offset="100%" style="stop-color:#1e40af;stop-opacity:1" />
    </linearGradient>
  </defs>
  <rect width="400" height="300" fill="url(#grad-res)"/>
  <g opacity="0.2">
    <rect x="20" y="20" width="360" height="260" fill="none" stroke="white" stroke-width="2"/>
    <line x1="20" y1="50" x2="380" y2="50" stroke="white" stroke-width="1"/>
    <line x1="20" y1="80" x2="380" y2="80" stroke="white" stroke-width="1"/>
    <line x1="20" y1="110" x2="380" y2="110" stroke="white" stroke-width="1"/>
    <line x1="20" y1="140" x2="380" y2="140" stroke="white" stroke-width="1"/>
    <line x1="20" y1="170" x2="380" y2="170" stroke="white" stroke-width="1"/>
    <line x1="20" y1="200" x2="380" y2="200" stroke="white" stroke-width="1"/>
    <line x1="20" y1="230" x2="380" y2="230" stroke="white" stroke-width="1"/>
    <line x1="50" y1="20" x2="50" y2="280" stroke="white" stroke-width="1"/>
    <line x1="100" y1="20" x2="100" y2="280" stroke="white" stroke-width="1"/>
    <line x1="150" y1="20" x2="150" y2="280" stroke="white" stroke-width="1"/>
    <line x1="200" y1="20" x2="200" y2="280" stroke="white" stroke-width="1"/>
    <line x1="250" y1="20" x2="250" y2="280" stroke="white" stroke-width="1"/>
    <line x1="300" y1="20" x2="300" y2="280" stroke="white" stroke-width="1"/>
    <line x1="350" y1="20" x2="350" y2="280" stroke="white" stroke-width="1"/>
  </g>
  <circle cx="200" cy="150" r="40" fill="white" opacity="0.3"/>
  <text x="200" y="160" font-size="50" font-weight="bold" fill="white" text-anchor="middle" opacity="0.8">🏘️</text>
</svg>
